<svg xmlns="http://www.w3.org/2000/svg" xmlns:xlink="http://www.w3.org/1999/xlink" viewBox="0 0 24 24"><defs><path id="a" d="M6.5 17.004a1.5 1.5 0 1 0 0 3 1.5 1.5 0 0 0 0-3m5-8.03c.76.036 1.488.313 2.08.79l2.5 2.2a3.92 3.92 0 0 0 1.5.74l3 .59c.409.062.773.294 1 .64.219.33.292.735.2 1.12l-.559 2.55a1.813 1.813 0 0 1-1.721 1.4h-.58a2.5 2.5 0 0 1-4.9 0h-3.06v-1h3.06a2.5 2.5 0 0 1 4.9 0h.58a.827.827 0 0 0 .73-.58l.56-2.55a.477.477 0 0 0-.06-.37.512.512 0 0 0-.309-.2l-3-.59a4.726 4.726 0 0 1-2-1l-2.5-2.2a2.571 2.571 0 0 0-1.421-.54h-5a1.807 1.807 0 0 0-1.199.6L3.5 13.004a3.008 3.008 0 0 0-.5 1.49v3a.5.5 0 0 0 .5.5l.552-.001a2.501 2.501 0 0 1 4.948.51 2.5 2.5 0 0 1-4.952.491H3.5a1.5 1.5 0 0 1-1.5-1.5v-3a4.007 4.007 0 0 1 .7-2.09l1.8-2.43a2.74 2.74 0 0 1 2-1h5zm4.97 8.03a1.5 1.5 0 0 0-1.46 1.16v.68a1.5 1.5 0 1 0 1.46-1.84zM8.852 3.154l2.569 2.56 1.66-2.49a.541.541 0 0 1 .84 0l1.8 2.71 3.66-.92a.502.502 0 0 1 .61.6l-1.15 4.934-1-.22 1-4.144-3.22.81a.54.54 0 0 1-.54-.21l-1.58-2.38-1.58 2.38a.548.548 0 0 1-.37.22.498.498 0 0 1-.399-.15l-2.43-2.42-.75 2.23a.49.49 0 0 1-.618.314l-.006-.002L5 6.194v1.81H4v-2.5a.523.523 0 0 1 .21-.41.513.513 0 0 1 .45-.06l2.521.84.85-2.53a.497.497 0 0 1 .349-.33.492.492 0 0 1 .471.14z"/></defs><use fill="#20607E" fill-rule="evenodd" xlink:href="#a"/></svg>